# xmcd CD database file
# Copyright (C) 1993-1998 Ti Kan
#
# Track frame offsets:
#	150
#	14970
#	29775
#	43030
#	55582
#	67877
#	81395
#	105105
#	119627
#	133827
#	146847
#	166317
#	191745
#
# Disc length: 2827 seconds
#
# Revision: 1
# Processed by: cddbd v1.4b41PL1 Copyright (c) Steve Scherf et al.
# Submitted via: CDValet v3.31 - Copyright (c) 1997 Greg Leichner
#
DISCID=c10b090d
DTITLE=Sisters Morales - Ain't No Perfect Diamond
DYEAR=1900
DGENRE=
TTITLE0=Couldn't Help But Love You
TTITLE1=I Can't Keep Holding On To You
TTITLE2=La Ultima Noche
TTITLE3=World Without Love
TTITLE4=This Heart's Not Mine To Give This Time
TTITLE5=Tryin'
TTITLE6=A Rose and A Heart Of Stone
TTITLE7=The Wheel
TTITLE8=Noche De Ronda
TTITLE9=Let Go Of Your Heart
TTITLE10=The Storm
TTITLE11=Ain't No Perfect Diamond
TTITLE12=Everything's About the Same (The Lumber Song)
EXTD=
EXTT0=
EXTT1=
EXTT2=
EXTT3=
EXTT4=
EXTT5=
EXTT6=
EXTT7=
EXTT8=
EXTT9=
EXTT10=
EXTT11=
EXTT12=
PLAYORDER=
